<svg width="512" height="512" viewBox="0 0 512 512" fill="none" xmlns="http://www.w3.org/2000/svg">
  <defs>
    <linearGradient id="bg" x1="96" y1="32" x2="416" y2="480" gradientUnits="userSpaceOnUse">
      <stop offset="0" stop-color="#132542" />
      <stop offset="1" stop-color="#071024" />
    </linearGradient>
    <radialGradient id="halo" cx="0" cy="0" r="1" gradientUnits="userSpaceOnUse" gradientTransform="translate(256 230) scale(220)">
      <stop stop-color="#6bb3dc" stop-opacity="0.65" />
      <stop offset="0.45" stop-color="#4abdf2" stop-opacity="0.18" />
      <stop offset="1" stop-color="#5a9bc4" stop-opacity="0" />
    </radialGradient>
    <radialGradient id="moon" cx="0" cy="0" r="1" gradientUnits="userSpaceOnUse" gradientTransform="translate(256 240) scale(160)">
      <stop offset="0" stop-color="#1b2d4a" />
      <stop offset="1" stop-color="#0f172a" />
    </radialGradient>
    <linearGradient id="bubble" x1="170" y1="188" x2="340" y2="322" gradientUnits="userSpaceOnUse">
      <stop offset="0" stop-color="#ffffff" stop-opacity="0.95" />
      <stop offset="1" stop-color="#a5ddff" stop-opacity="0.85" />
    </linearGradient>
  </defs>

  <rect width="512" height="512" rx="120" fill="url(#bg)" />
  <rect width="512" height="512" rx="120" fill="#8cf7ff" fill-opacity="0.04" />
  <circle cx="256" cy="246" r="210" fill="url(#halo)" />
  <circle cx="256" cy="246" r="168" fill="url(#moon)" />
  <circle cx="256" cy="220" r="120" fill="#fff" fill-opacity="0.02" />

  <g transform="translate(-18 0)">
    <path
      d="M166 224c0-32 26-58 58-58h124c32 0 58 26 58 58v44c0 32-26 58-58 58h-48l-36 33c-6 5-15 0-13-8l5-25h-32c-32 0-58-26-58-58z"
      fill="url(#bubble)"
    />
  </g>
</svg>
