<svg width="1400" height="800" viewBox="0 0 1400 800" xmlns="http://www.w3.org/2000/svg">
  <defs>
    <linearGradient id="bg" x1="0%" y1="0%" x2="100%" y2="100%">
      <stop offset="0%" stop-color="#0f172a"/>
      <stop offset="100%" stop-color="#1e293b"/>
    </linearGradient>
    <linearGradient id="accent" x1="0%" y1="0%" x2="100%" y2="0%">
      <stop offset="0%" stop-color="#38bdf8"/>
      <stop offset="100%" stop-color="#4ade80"/>
    </linearGradient>
  </defs>
  <rect width="1400" height="800" fill="url(#bg)"/>
  <circle cx="980" cy="360" r="220" fill="#1e1b4b" opacity="0.35"/>
  <circle cx="980" cy="360" r="140" fill="#0ea5e9" opacity="0.35"/>
  <g transform="translate(860 220)">
    <ellipse cx="120" cy="180" rx="120" ry="160" fill="#fefce8" opacity="0.95"/>
    <ellipse cx="120" cy="130" rx="90" ry="70" fill="#fde68a"/>
    <circle cx="90" cy="130" r="14" fill="#0f172a"/>
    <circle cx="150" cy="130" r="14" fill="#0f172a"/>
    <path d="M80 190 Q120 220 160 190" stroke="#0f172a" stroke-width="6" fill="none" stroke-linecap="round"/>
    <path d="M40 260 C120 330 160 330 240 260" stroke="#93c5fd" stroke-width="14" fill="none" opacity="0.55"/>
  </g>
  <text x="160" y="320" fill="#e2e8f0" font-size="90" font-weight="700" font-family="Inter, 'Segoe UI', sans-serif">Emote</text>
  <text x="160" y="390" fill="#94a3b8" font-size="32" font-family="Inter, 'Segoe UI', sans-serif">Let AI assistants show how they feel inside VS Code.</text>
  <rect x="160" y="430" width="360" height="4" fill="url(#accent)" rx="2"/>
  <text x="160" y="500" fill="#cbd5f5" font-size="28" font-family="Inter, 'Segoe UI', sans-serif">• Animated companion • MCP-native controls • Themeable moods</text>
  <rect x="160" y="540" width="460" height="110" rx="12" fill="#111827" opacity="0.6" stroke="#38bdf8" stroke-width="1.5"/>
  <text x="190" y="585" fill="#38bdf8" font-size="26" font-weight="600" font-family="Inter, 'Segoe UI', sans-serif">How it works</text>
  <text x="190" y="620" fill="#cbd5f5" font-size="22" font-family="Inter, 'Segoe UI', sans-serif">MCP tools → temp file → Emote webview reacts in real time.</text>
</svg>

