<svg width="1280" height="720" viewBox="0 0 1280 720" xmlns="http://www.w3.org/2000/svg">
  <defs>
    <linearGradient id="panel" x1="0%" y1="0%" x2="100%" y2="100%">
      <stop offset="0%" stop-color="#0f172a"/>
      <stop offset="100%" stop-color="#1e293b"/>
    </linearGradient>
  </defs>
  <rect width="1280" height="720" fill="#020617"/>
  <rect x="80" y="60" width="1120" height="600" rx="18" fill="url(#panel)" stroke="#1f2937" stroke-width="2"/>
  <rect x="80" y="60" width="1120" height="52" rx="18" fill="#111827"/>
  <circle cx="116" cy="86" r="8" fill="#f87171"/>
  <circle cx="146" cy="86" r="8" fill="#fbbf24"/>
  <circle cx="176" cy="86" r="8" fill="#34d399"/>
  <rect x="220" y="78" width="180" height="16" rx="8" fill="#1f2937"/>
  <rect x="80" y="112" width="280" height="548" fill="#0b1220" opacity="0.85"/>
  <text x="110" y="160" fill="#bae6fd" font-size="20" font-family="Inter, 'Segoe UI', sans-serif">COMMANDS</text>
  <text x="110" y="200" fill="#94a3b8" font-size="18" font-family="Inter, 'Segoe UI', sans-serif">Emote: Show Character</text>
  <text x="110" y="235" fill="#94a3b8" font-size="18" font-family="Inter, 'Segoe UI', sans-serif">Emote: Copy MCP Configuration</text>
  <rect x="420" y="160" width="380" height="320" rx="24" fill="#fefce8"/>
  <ellipse cx="610" cy="260" rx="120" ry="90" fill="#fde68a"/>
  <circle cx="560" cy="250" r="16" fill="#0f172a"/>
  <circle cx="660" cy="250" r="16" fill="#0f172a"/>
  <path d="M535 310 Q610 360 685 310" stroke="#0f172a" stroke-width="8" fill="none" stroke-linecap="round"/>
  <path d="M460 460 C610 530 650 530 800 460" stroke="#93c5fd" stroke-width="18" fill="none" opacity="0.6"/>
  <rect x="850" y="200" width="250" height="220" rx="12" fill="#111827" stroke="#38bdf8" stroke-width="1.5"/>
  <text x="880" y="240" fill="#38bdf8" font-size="20" font-weight="600" font-family="Inter, 'Segoe UI', sans-serif">Speech Bubble</text>
  <text x="880" y="275" fill="#cbd5f5" font-size="18" font-family="Inter, 'Segoe UI', sans-serif">tone: shout</text>
  <text x="880" y="310" fill="#e2e8f0" font-size="18" font-family="Inter, 'Segoe UI', sans-serif">"Deploy succeeded!"</text>
  <rect x="850" y="460" width="250" height="110" rx="12" fill="#111827" stroke="#4ade80" stroke-width="1.5"/>
  <text x="880" y="500" fill="#4ade80" font-size="20" font-weight="600" font-family="Inter, 'Segoe UI', sans-serif">Active Tool</text>
  <text x="880" y="535" fill="#cbd5f5" font-size="18" font-family="Inter, 'Segoe UI', sans-serif">setMood: smile</text>
  <text x="420" y="520" fill="#94a3b8" font-size="18" font-family="Inter, 'Segoe UI', sans-serif">Emote listens via MCP and mirrors every expression.</text>
</svg>

